<svg width="24" height="24" viewBox="0 0 24 24" fill="none"
  xmlns="http://www.w3.org/2000/svg">
  <path d="M13.8302 19.0003C13.6808 19.0008 13.5332 18.9678 13.3982 18.9038C13.2632 18.8398 13.1443 18.7463 13.0502 18.6303L8.22016 12.6303C8.07308 12.4513 7.99268 12.2269 7.99268 11.9953C7.99268 11.7637 8.07308 11.5392 8.22016 11.3603L13.2202 5.36028C13.3899 5.15606 13.6338 5.02763 13.8982 5.00325C14.1627 4.97888 14.4259 5.06054 14.6302 5.23028C14.8344 5.40001 14.9628 5.64393 14.9872 5.90835C15.0116 6.17278 14.9299 6.43606 14.7602 6.64028L10.2902 12.0003L14.6102 17.3603C14.7324 17.5071 14.8101 17.6858 14.834 17.8753C14.8579 18.0649 14.827 18.2573 14.7449 18.4299C14.6629 18.6024 14.5331 18.7478 14.371 18.8489C14.2089 18.95 14.0212 19.0025 13.8302 19.0003Z" fill="#FF3E3E"/>
</svg>
