<svg width="current" height="current" viewBox="0 0 452 508" fill="none"
  xmlns="http://www.w3.org/2000/svg">
  <path d="M102.665 338.75V101.312C102.694 74.7506 113.258 49.2852 132.04 30.5034C150.822 11.7215 176.287 1.15711 202.849 1.12793H245.017C271.579 1.15711 297.044 11.7215 315.826 30.5034C334.608 49.2852 345.172 74.7506 345.201 101.312V338.75H102.665Z" fill="#FFE2A2"/>
  <path d="M245.017 1.81701C271.396 1.84619 296.686 12.3381 315.338 30.9907C333.991 49.6433 344.483 74.9334 344.512 101.312V338.061H103.354V101.312C103.383 74.9334 113.875 49.6433 132.527 30.9907C151.18 12.3381 176.47 1.84619 202.849 1.81701H245.017ZM245.017 0.438965H202.849C176.096 0.438965 150.438 11.0666 131.521 29.984C112.603 48.9014 101.976 74.5589 101.976 101.312V339.439H345.89V101.312C345.89 74.5589 335.263 48.9014 316.345 29.984C297.428 11.0666 271.77 0.438965 245.017 0.438965Z" fill="#FF3E3E"/>
  <path d="M359.299 127.743C343.713 99.7962 305.789 94.1462 281.825 115.341L271.214 124.725C270.305 125.53 269.185 126.057 267.986 126.244C266.786 126.431 265.559 126.269 264.448 125.779C263.338 125.288 262.392 124.489 261.723 123.477C261.053 122.464 260.688 121.281 260.672 120.067L260.451 105.901C259.969 73.9164 230.231 49.6903 199.087 57.0077C191.901 58.6722 185.189 61.9506 179.459 66.5945C173.728 71.2384 169.13 77.126 166.014 83.8108C165.697 84.4585 165.393 85.1888 165.09 85.7814L129.826 165.708C123.039 181.084 122.637 198.527 128.707 214.2C134.777 229.873 146.823 242.493 162.196 249.287L220.35 274.96C220.531 276.266 220.903 277.538 221.453 278.736C224.994 286.453 231.871 303.362 230.837 316.729C229.804 330.096 234.144 341.878 243.818 347.046C244.252 347.267 244.67 347.516 245.072 347.79C250.256 351.18 256.168 353.295 262.325 353.963C278.531 355.893 292.739 348.451 294.021 337.427C294.971 329.434 288.88 321.717 279.289 317.335C277.144 316.368 275.287 314.86 273.9 312.959C272.513 311.057 271.644 308.828 271.379 306.49C270.845 300.86 269.661 295.311 267.851 289.953C280.107 289.916 292.088 286.327 302.346 279.62C312.603 272.914 320.697 263.378 325.647 252.167L360.925 172.24C361.228 171.579 361.504 170.862 361.779 170.242C364.616 163.434 365.866 156.07 365.436 148.707C365.007 141.344 362.908 134.175 359.299 127.743Z" fill="#FF3E3E"/>
  <path d="M102.665 338.75V101.312C102.694 74.7506 113.258 49.2852 132.04 30.5034C150.822 11.7215 176.287 1.15711 202.849 1.12793H226.11C251.811 31.7757 251.287 85.1889 224.732 131.009C206.17 163.145 177.121 187.137 147.024 195.199L145.646 195.557L146.748 196.411C165.89 211.184 181.31 232.061 191.342 256.756C202.366 284.055 205.495 313.146 200.065 338.75H102.665Z" fill="#FFBABA"/>
  <path d="M225.793 1.81701C251.108 32.2857 250.474 85.1476 224.195 130.665C205.729 162.649 176.845 186.517 146.914 194.537L144.158 195.254L146.363 196.949C165.407 211.666 180.814 232.433 190.722 257.018C201.664 283.986 204.778 312.719 199.528 338.061H103.354V101.312C103.383 74.9334 113.875 49.6433 132.527 30.9907C151.18 12.3381 176.47 1.84619 202.849 1.81701H225.793ZM226.441 0.438965H202.849C176.096 0.438965 150.438 11.0666 131.521 29.984C112.603 48.9014 101.976 74.5589 101.976 101.312V339.439H200.713C206.129 314.551 203.703 285.171 192.072 256.494C181.696 230.931 165.669 210.068 147.272 195.86C176.583 188.019 205.922 165.088 225.394 131.354C252.707 84.0452 251.949 30.5769 226.441 0.438965Z" fill="#FF3E3E"/>
  <path d="M188.793 198.878C188.793 210.952 177.183 220.927 162.61 220.927C148.037 220.927 136.427 210.952 136.427 198.878C136.427 186.804 148.037 176.829 162.61 176.829C177.183 176.829 188.793 186.804 188.793 198.878Z" fill="#FF3E3E" stroke="white" stroke-width="1.37805"/>
  <path d="M317.913 187.968C323.542 173.417 321.488 159.061 313.326 155.903C305.163 152.745 293.982 161.981 288.353 176.532C282.723 191.083 284.777 205.439 292.94 208.597C301.103 211.755 312.283 202.519 317.913 187.968Z" fill="white"/>
  <path d="M310.448 178.709C313.304 171.327 311.206 163.635 305.761 161.529C300.317 159.423 293.589 163.7 290.733 171.082C287.877 178.464 289.975 186.156 295.419 188.262C300.864 190.368 307.592 186.091 310.448 178.709Z" fill="black"/>
  <path d="M273.818 171.439C279.448 156.887 277.394 142.531 269.231 139.373C261.068 136.216 249.888 145.451 244.258 160.003C238.629 174.554 240.683 188.91 248.845 192.068C257.008 195.226 268.189 185.99 273.818 171.439Z" fill="white"/>
  <path d="M266.354 162.179C269.21 154.797 267.111 147.106 261.667 144.999C256.223 142.893 249.494 147.17 246.638 154.552C243.783 161.934 245.881 169.626 251.325 171.732C256.769 173.838 263.498 169.561 266.354 162.179Z" fill="black"/>
  <path d="M0 456.01V402.829H34.8676V414.118H71.1099V402.829H105.978V471.814H72.2347V477.96H105.978V505.805H0V477.96H33.7429V471.814H15.7467C5.74878 471.814 0 466.044 0 456.01ZM38.1169 437.698L36.7422 441.461C46.3652 444.471 60.2372 445.6 69.6103 445.6V441.837C60.2372 441.837 47.4899 440.332 38.1169 437.698Z" fill="#FF3E3E"/>
  <path d="M114.966 456.01V402.829H220.943V435.064H152.583V439.579H220.943V471.814H130.713C120.715 471.814 114.966 466.044 114.966 456.01ZM220.943 505.805H114.966V477.96H220.943V505.805Z" fill="#FF3E3E"/>
  <path d="M229.932 449.112C240.68 449.112 249.803 446.729 258.176 442.715C255.676 440.959 253.427 439.078 251.677 437.071L254.302 434.813C265.549 446.729 277.547 449.112 291.544 449.112V423.65C284.045 422.396 279.421 418.507 279.421 406.341V402.829H241.929V406.341C241.929 418.507 236.805 422.396 229.932 423.65V449.112ZM330.91 449.112V439.956H340.408V410.355H330.91V402.829H294.793V449.112H330.91ZM275.172 507.561C296.168 507.561 314.914 506.432 330.91 502.167V478.963C320.288 482.601 308.29 484.357 295.918 484.357V481.221C308.29 481.221 320.288 479.465 330.91 475.828V452.247H229.932V472.065C242.929 472.065 252.927 471.187 264.924 468.678V471.814C252.927 474.323 242.929 475.201 229.932 475.201V480.97C229.932 497.903 245.428 507.561 275.172 507.561Z" fill="#FF3E3E"/>
  <path d="M450.875 467.675H344.898V450.617H378.641V447.481H360.269C350.147 447.481 344.898 443.969 344.898 435.816V424.528C359.145 424.528 368.268 423.65 382.265 421.141V417.755C368.268 420.263 359.145 421.141 344.898 421.141V402.829H450.875V424.026C440.252 426.66 425.881 426.911 416.008 426.911V430.298C425.881 430.298 440.252 430.047 450.875 427.413V444.471C443.002 445.725 430.38 446.979 417.132 447.356V450.617H450.875V467.675ZM343.773 488.245C343.773 473.068 361.144 468.929 397.886 468.929C434.629 468.929 452 473.068 452 488.245C452 503.422 434.629 507.561 397.886 507.561C361.144 507.561 343.773 503.422 343.773 488.245ZM384.264 483.103L382.89 486.865C392.513 489.876 403.885 491.004 413.258 491.004V487.242C403.885 487.242 393.637 485.736 384.264 483.103Z" fill="#FF3E3E"/>
</svg>
