<svg width="24" height="25" viewBox="0 0 24 25" fill="none"
  xmlns="http://www.w3.org/2000/svg">
  <path d="M4 12.4094C4 10.8866 4 10.1252 4.31367 9.45587C4.62734 8.78658 5.21642 8.29106 6.39457 7.30001L7.53743 6.33865C9.66694 4.54734 10.7317 3.65169 12 3.65169C13.2683 3.65169 14.3331 4.54734 16.4626 6.33865L17.6054 7.30001C18.7836 8.29106 19.3727 8.78658 19.6863 9.45587C20 10.1252 20 10.8866 20 12.4094V17.1654C20 19.2802 20 20.3377 19.3305 20.9947C18.6611 21.6517 17.5836 21.6517 15.4286 21.6517H8.57143C6.41644 21.6517 5.33894 21.6517 4.66947 20.9947C4 20.3377 4 19.2802 4 17.1654V12.4094Z" stroke="#1B1717" stroke-width="2"/>
  <path d="M14.5 20.6517V15.6517C14.5 15.0994 14.0523 14.6517 13.5 14.6517H10.5C9.94772 14.6517 9.5 15.0994 9.5 15.6517V20.6517" stroke="#1B1717" stroke-width="2" stroke-linecap="round" stroke-linejoin="round"/>
</svg>
