<svg width="28" height="28" viewBox="0 0 28 28" fill="none"
  xmlns="http://www.w3.org/2000/svg">
  <path d="M13.6292 6.07031C8.46958 6.07031 4.30859 9.27141 4.30859 13.1576C4.30859 15.6801 6.03957 17.8889 8.63602 19.1501L7.75722 22.3065C7.74065 22.3538 7.7381 22.4045 7.74986 22.4532C7.76162 22.5018 7.78722 22.5463 7.8238 22.5817C7.87713 22.6269 7.94576 22.652 8.01687 22.6521C8.07583 22.6476 8.13177 22.6252 8.17665 22.5881L11.9582 20.1361C12.5164 20.2102 13.079 20.2486 13.6425 20.2513C18.7955 20.2513 22.9631 17.0502 22.9631 13.1576C22.9631 9.26501 18.7822 6.07031 13.6292 6.07031Z" fill="white"/>
</svg>
