<svg width="16" height="14" viewBox="0 0 16 14" fill="none"
  xmlns="http://www.w3.org/2000/svg">
  <path fill-rule="evenodd" clip-rule="evenodd" d="M4.99935 0.500001C5.69473 0.499585 6.37999 0.666694 6.99712 0.98719C7.36522 1.17836 7.70262 1.42074 7.99979 1.706C8.77783 0.959653 9.83508 0.500001 10.9993 0.500001C13.3925 0.500001 15.3327 2.44014 15.3327 4.83333C15.3327 6.92274 14.1087 8.83292 12.6814 10.2743C11.2476 11.7223 9.49409 12.8145 8.20957 13.2413C8.07309 13.2867 7.92561 13.2867 7.78913 13.2413C6.50461 12.8145 4.75109 11.7223 3.3173 10.2743C1.88999 8.83292 0.666016 6.92274 0.666016 4.83333C0.666016 2.4403 2.60638 0.500256 4.99935 0.500001Z" fill="#FB4846"/>
</svg>
