<svg width="16" height="17" viewBox="0 0 16 17" fill="none"
  xmlns="http://www.w3.org/2000/svg">
  <path fill-rule="evenodd" clip-rule="evenodd" d="M4.99935 2.5C5.69473 2.49958 6.37999 2.66669 6.99712 2.98719C7.36522 3.17836 7.70262 3.42074 7.99979 3.706C8.77783 2.95965 9.83508 2.5 10.9993 2.5C13.3925 2.5 15.3327 4.44014 15.3327 6.83333C15.3327 8.92274 14.1087 10.8329 12.6814 12.2743C11.2476 13.7223 9.49409 14.8145 8.20957 15.2413C8.07309 15.2867 7.92561 15.2867 7.78913 15.2413C6.50461 14.8145 4.75109 13.7223 3.3173 12.2743C1.88999 10.8329 0.666016 8.92274 0.666016 6.83333C0.666016 4.4403 2.6059 2.50026 4.99888 2.5M6.3826 4.17047C5.95545 3.94864 5.48114 3.83299 4.99982 3.83333L4.99935 3.83333C3.34254 3.83333 1.99935 5.17652 1.99935 6.83333C1.99935 8.41059 2.94204 10.0004 4.26473 11.3362C5.4957 12.5793 6.95725 13.5014 7.99935 13.9007C9.04145 13.5014 10.503 12.5793 11.734 11.3362C13.0567 10.0004 13.9993 8.41059 13.9993 6.83333C13.9993 5.17652 12.6562 3.83333 10.9993 3.83333C9.98531 3.83333 9.08826 4.33594 8.5445 5.10841C8.41955 5.28591 8.216 5.39147 7.99893 5.39133C7.78186 5.3912 7.57845 5.28539 7.45372 5.10773C7.17716 4.71379 6.80975 4.3923 6.3826 4.17047Z" fill="#878585"/>
</svg>
